<svg xmlns="http://www.w3.org/2000/svg" width="216" height="216" viewBox="0 0 216 216">
  <g id="Group_531" data-name="Group 531" transform="translate(-23169 -16862)">
    <rect id="Rectangle_288" data-name="Rectangle 288" width="156" height="156" transform="translate(23198.5 16886.5)" fill="#fff" opacity="0.5" style="isolation: isolate"/>
    <g id="Line_30" data-name="Line 30" transform="translate(24708.453 16709.672)">
      <rect id="Rectangle_469" data-name="Rectangle 469" width="1" height="216" transform="translate(-1509.952 152.328)" fill="#fff"/>
    </g>
    <g id="Line_29" data-name="Line 29" transform="translate(24708.453 16709.672)">
      <rect id="Rectangle_470" data-name="Rectangle 470" width="1" height="216" transform="translate(-1353.952 152.328)" fill="#fff"/>
    </g>
    <g id="Line_28" data-name="Line 28" transform="translate(24708.453 16709.672)">
      <rect id="Rectangle_471" data-name="Rectangle 471" width="216" height="1" transform="translate(-1539.452 332.828)" fill="#fff"/>
    </g>
    <g id="Line_27" data-name="Line 27" transform="translate(24708.453 16709.672)">
      <rect id="Rectangle_472" data-name="Rectangle 472" width="216" height="1" transform="translate(-1539.452 176.828)" fill="#fff"/>
    </g>
    <g id="Thai" transform="translate(24708.453 16709.672)" style="isolation: isolate">
      <g id="Group_527" data-name="Group 527" style="isolation: isolate">
        <path id="Path_1194" data-name="Path 1194" d="M-1440.963,357.094v9.082h-1.157v-9.082h-3.023v-1.04h7.222v1.04Z" fill="#fff"/>
        <path id="Path_1195" data-name="Path 1195" d="M-1431.6,366.176v-4.7a2.743,2.743,0,0,0-.128-.879,1.7,1.7,0,0,0-.372-.63,1.531,1.531,0,0,0-.585-.381,2.246,2.246,0,0,0-.775-.126,1.9,1.9,0,0,0-.752.148,1.836,1.836,0,0,0-.6.418,1.927,1.927,0,0,0-.4.64,2.219,2.219,0,0,0-.144.81v4.7h-1.118v-11h1.118v4.243a2.544,2.544,0,0,1,.957-.7,3.1,3.1,0,0,1,1.181-.217,3.2,3.2,0,0,1,1.153.2,2.279,2.279,0,0,1,.854.559,2.433,2.433,0,0,1,.53.883,3.476,3.476,0,0,1,.183,1.165v4.878Z" fill="#fff"/>
        <path id="Path_1196" data-name="Path 1196" d="M-1423.863,366.176v-.742a3.577,3.577,0,0,1-.461.393,2.323,2.323,0,0,1-.484.259,2.5,2.5,0,0,1-.556.144,4.751,4.751,0,0,1-.677.044,4.114,4.114,0,0,1-1.021-.125,2.582,2.582,0,0,1-.874-.395,2.055,2.055,0,0,1-.612-.693,2.1,2.1,0,0,1-.232-1.023,2.4,2.4,0,0,1,.171-.92,1.92,1.92,0,0,1,.5-.716,2.314,2.314,0,0,1,.825-.462,3.643,3.643,0,0,1,1.137-.163h2.281V361.1a2.172,2.172,0,0,0-.108-.724,1.191,1.191,0,0,0-.342-.518,1.516,1.516,0,0,0-.6-.313,3.268,3.268,0,0,0-.887-.105,3.545,3.545,0,0,0-.607.049,2.161,2.161,0,0,0-.513.154,1.868,1.868,0,0,0-.437.268,2.7,2.7,0,0,0-.381.388l-.742-.678a4.428,4.428,0,0,1,.576-.54,2.586,2.586,0,0,1,.6-.346,2.916,2.916,0,0,1,.689-.184,5.853,5.853,0,0,1,.835-.053,3.516,3.516,0,0,1,2.283.631,2.318,2.318,0,0,1,.759,1.888v5.161Zm0-3.462H-1426a2.113,2.113,0,0,0-1.279.318,1.156,1.156,0,0,0-.42.986,1.151,1.151,0,0,0,.42.979,2.183,2.183,0,0,0,1.318.32c.166,0,.326,0,.479-.015a2.738,2.738,0,0,0,.442-.065,1.855,1.855,0,0,0,.412-.156,1.768,1.768,0,0,0,.391-.287,1.049,1.049,0,0,0,.286-.5,3.033,3.033,0,0,0,.09-.8Z" fill="#fff"/>
        <path id="Path_1197" data-name="Path 1197" d="M-1420.4,355.8a.725.725,0,0,1,.058-.291.759.759,0,0,1,.161-.234.768.768,0,0,1,.243-.156.784.784,0,0,1,.294-.056.787.787,0,0,1,.3.056.762.762,0,0,1,.242.156.8.8,0,0,1,.164.234.708.708,0,0,1,.06.291.726.726,0,0,1-.06.295.793.793,0,0,1-.164.243.8.8,0,0,1-.242.164.736.736,0,0,1-.3.06.733.733,0,0,1-.294-.06.807.807,0,0,1-.243-.164.754.754,0,0,1-.161-.243A.744.744,0,0,1-1420.4,355.8Zm1.3,10.381v-7.6h-1.1v7.6Z" fill="#fff"/>
      </g>
    </g>
    <g id="Group_272" data-name="Group 272" transform="translate(24708.453 16709.672)">
      <g id="Group_269" data-name="Group 269">
        <path id="Path_275" data-name="Path 275" d="M-1423.005,287.811a5.157,5.157,0,0,0-1.11-.68,6.688,6.688,0,0,0-1.031-.358,5.814,5.814,0,0,0-.944-.159c-.278-.021-.522-.032-.728-.032h-3.573v2.5l3.635-.013a3.436,3.436,0,0,1,1.373.217,3.34,3.34,0,0,1,.78.469,2.616,2.616,0,0,1,.64,1.009,4.931,4.931,0,0,1,.248,1.57h-3.547v2.528h3.557v3.97h2.544v-6.29a5.869,5.869,0,0,0-1.839-4.727" fill="#0055a5"/>
        <path id="Path_276" data-name="Path 276" d="M-1413.095,287.811a5.16,5.16,0,0,0-1.11-.68,6.692,6.692,0,0,0-1.031-.358,5.809,5.809,0,0,0-.945-.159c-.277-.021-.522-.032-.727-.032h-3.156v2.49l3.217-.008a3.436,3.436,0,0,1,1.373.217,3.342,3.342,0,0,1,.78.469,2.6,2.6,0,0,1,.64,1.009,5.159,5.159,0,0,1,.254,1.778v6.29h2.544v-6.29a5.869,5.869,0,0,0-1.839-4.727" fill="#0055a5"/>
        <path id="Path_277" data-name="Path 277" d="M-1455.792,286.593h-2.522V292.9a5.134,5.134,0,0,1-.252,1.749,2.585,2.585,0,0,1-.641,1.009,3.254,3.254,0,0,1-.78.469,3.4,3.4,0,0,1-1.373.217h0a3.4,3.4,0,0,1-1.373-.217,3.254,3.254,0,0,1-.78-.469,2.572,2.572,0,0,1-.64-1.009,5.111,5.111,0,0,1-.253-1.749v-6.309h-2.545v6.28c0,.1.008.184.01.277a5.741,5.741,0,0,0,1.828,4.449,5.034,5.034,0,0,0,1.11.68,6.493,6.493,0,0,0,1.032.358,5.588,5.588,0,0,0,.944.159c.253.02.474.029.667.031s.414-.012.667-.031a5.6,5.6,0,0,0,.944-.159,6.526,6.526,0,0,0,1.032-.358,5.054,5.054,0,0,0,1.11-.68,5.736,5.736,0,0,0,1.828-4.449c0-.094.01-.182.01-.277v-6.28Z" fill="#0055a5"/>
        <path id="Path_278" data-name="Path 278" d="M-1399.352,287.811a5.154,5.154,0,0,0-1.11-.68,6.735,6.735,0,0,0-1.032-.358,5.812,5.812,0,0,0-.944-.159c-.278-.021-.523-.032-.728-.032h-5.531l.006,12.245h2.538v-9.746l3.048-.017a3.436,3.436,0,0,1,1.373.217,3.34,3.34,0,0,1,.78.469,2.6,2.6,0,0,1,.64,1.009,5.183,5.183,0,0,1,.254,1.778v6.29h2.543v-6.29a5.87,5.87,0,0,0-1.838-4.727" fill="#0055a5"/>
        <path id="Path_279" data-name="Path 279" d="M-1432.648,286.582h-5.591v2.528h3.047v7.219l-2.431.016a3.4,3.4,0,0,1-1.373-.217,3.227,3.227,0,0,1-.78-.47,2.581,2.581,0,0,1-.64-1.008,3.135,3.135,0,0,1-.114-.38h-2.579a5.248,5.248,0,0,0,1.734,3.328,5.037,5.037,0,0,0,1.11.681,6.481,6.481,0,0,0,1.031.358,5.8,5.8,0,0,0,.944.159c.278.021.522.032.728.032h4.914Z" fill="#0055a5"/>
        <path id="Path_280" data-name="Path 280" d="M-1446.714,287.811a5.157,5.157,0,0,0-1.11-.68,6.688,6.688,0,0,0-1.031-.358,5.814,5.814,0,0,0-.944-.159c-.278-.021-.522-.032-.727-.032h-3.156v2.49l3.217-.008a3.436,3.436,0,0,1,1.373.217,3.34,3.34,0,0,1,.78.469,2.63,2.63,0,0,1,.64,1.009,5.209,5.209,0,0,1,.254,1.778v6.29h2.544v-6.29a5.87,5.87,0,0,0-1.838-4.727" fill="#0055a5"/>
      </g>
      <g id="Group_271" data-name="Group 271">
        <g id="Group_270" data-name="Group 270">
          <path id="Path_281" data-name="Path 281" d="M-1397.422,214.042v59.1a8.807,8.807,0,0,1-8.857,8.7h-51.5a8.806,8.806,0,0,1-8.855-8.7V223.5a9.995,9.995,0,0,1,9.733-9.672h59.49" fill="#fff"/>
          <path id="Path_282" data-name="Path 282" d="M-1410.521,221.794c-13.881,2.74-36.4,10.056-38.865,14.017s-11.416,16.759-2.469,25.593,18.817,9.751,23.131,8.84,13.883-2.443,16.048-15.848S-1410.521,221.794-1410.521,221.794Z" fill="#00a18b"/>
          <path id="Path_283" data-name="Path 283" d="M-1400.651,216.462v5.029c-3.7,1.066-18.354,4.265-24.519,5.787s-26.81,5.327-26.994,22.852c-.154,14.779,19.591,21.635,30.075,15.384,3.31-1.967,8.482-5.026,8.482-25.6V221.491h-41.023c-2.468,0-4.01,2.284-4.01,4.72v44.181c0,2.287,1.078,3.807,3.856,3.807h45.8c2.47,0,3.083-1.823,3.083-3.349V232.3c-20.048,9.754-33.619,22.7-44.26,42.509h-5.614c10.394-21.937,28.288-39.608,55.121-50.123v46.161c0,6.858-5.7,8.383-8.482,8.383h-46.577c-5.089,0-8.172-3.2-8.172-8.534V226.065c0-4.119,2.469-9.454,9.567-9.454h45.954v19.35c0,9.293-.149,24.076-6.939,30.931-7.407,7.462-19.126,6.708-24.681,4.873s-17.108-7.007-17.275-21.327c-.145-13.557,8.952-22.852,31.1-28.257Z" fill="#0055a5"/>
        </g>
      </g>
    </g>
  </g>
</svg>
